# xmcd
#
# Track frame offsets: 
#        150
#        15118
#        29668
#        47503
#        61410
#        81447
#        100273
#        113123
#        126895
#        139801
#        154011
#        170054
#
# Disc length: 2474 seconds
#
# Revision: 2
# Processed by: cddbd v1.5.2PL0 Copyright (c) Steve Scherf et al.
# Submitted via: ExactAudioCopy v1.3
#
DISCID=9b09a80c
DTITLE=The Lonesome River Band - Bridging the Tradition
DYEAR=2016
DGENRE=Country
TTITLE0=Anything to Make Her Mine
TTITLE1=Rocking of the Cradle
TTITLE2=Boats up the River
TTITLE3=Rock Bottom
TTITLE4=Rose in Paradise
TTITLE5=Showing My Age
TTITLE6=Old Swinging Bridge
TTITLE7=Mirrors Never Lie
TTITLE8=Thunder and Lightning
TTITLE9=Waiting on My Heart to Break
TTITLE10=Runnin' from the Blues
TTITLE11=Real People
EXTD=
EXTT0=
EXTT1=
EXTT2=
EXTT3=
EXTT4=
EXTT5=
EXTT6=
EXTT7=
EXTT8=
EXTT9=
EXTT10=
EXTT11=
PLAYORDER=
